<?xml version="1.0" encoding="UTF-8"?>
<svg id="Layer_1" xmlns="http://www.w3.org/2000/svg" viewBox="0 0 866.6 339.33">
  <defs>
    <style>
      .cls-1 {
        fill: red;
      }

      .cls-2 {
        fill: #999;
      }
    </style>
  </defs>
  <g>
    <g>
      <path class="cls-2" d="M145.75,339.33c-53.4,0-80.09-19.78-80.09-59.36v-120.22h35.13v120.22c0,11.8,3.66,20.7,10.98,26.69,7.32,5.99,18.88,8.98,34.69,8.98,30.44,0,45.67-11.89,45.67-35.66v-120.22h35.13v120.22c0,19.79-6.91,34.63-20.73,44.52-13.82,9.9-34.07,14.84-60.77,14.84Z"/>
      <path class="cls-2" d="M265.89,183.44v-23.69h182.67v23.69h-182.67ZM339.67,336.83v-177.09h35.13v177.09h-35.13Z"/>
      <path class="cls-2" d="M492.13,183.44v-23.69h151.76v23.69h-151.76ZM492.13,336.83v-23.69h151.76v23.69h-151.76ZM550.26,336.83v-177.09h35.13v177.09h-35.13Z"/>
      <path class="cls-2" d="M701.5,336.83v-177.09h35.13v177.09h-35.13ZM701.5,336.83v-23.69h165.11v23.69h-165.11Z"/>
    </g>
    <circle class="cls-2" cx="18.5" cy="317.87" r="18.5"/>
  </g>
  <g>
    <polygon class="cls-1" points="169.38 0 128.51 55.98 173.32 113.68 178.35 113.68 178.35 0 169.38 0"/>
    <polygon class="cls-1" points="109.43 44.43 139.42 0 64.67 0 64.67 44.43 109.43 44.43"/>
    <polygon class="cls-1" points="64.67 69.25 64.67 113.68 142.88 113.68 108.45 69.25 64.67 69.25"/>
  </g>
  <g>
    <g>
      <path class="cls-2" d="M234.58,57.24l43.6-29.91h-16.19l-39.31,28.17v-28.17h-12.6v59.82h12.6v-26.76l42.76,26.76h16.61l-47.47-29.91Z"/>
      <path class="cls-2" d="M368.75,72.22l-6.07-9.55-22.49-35.34h-14.81l-38.06,59.82h12.87l10.53-16.45,4.01-6.81,17.58-27.5,16.81,26.29.77,1.21,4.01,6.81.98,1.52,9.67,14.93h13.7l-9.5-14.93h0Z"/>
      <path class="cls-2" d="M446.48,27.33l-28.79,52.51-31.98-52.51h-14.95l38.75,59.82h14.95l35.71-59.82h-13.7Z"/>
      <path class="cls-2" d="M475.41,27.33v59.82h12.6V27.33h-12.6Z"/>
      <path class="cls-2" d="M570.35,27.33l-26.29,31.32-26.57-31.32h-14.81l34.74,38.8v21.02h12.6v-21.19l34.32-38.63h-13.98Z"/>
      <path class="cls-2" d="M732.35,61.52c-2.45-2.24-5.93-4.05-10.45-5.4-4.51-1.36-10.01-2.5-16.47-3.45-5.26-.83-9.37-1.69-12.31-2.57-2.95-.89-5.03-1.9-6.23-3.03-1.21-1.13-1.8-2.45-1.8-3.94,0-2.33,1.62-4.31,4.85-5.95,3.23-1.63,8.21-2.45,14.95-2.45,4.98,0,9.39.22,13.22.67,3.83.44,7.87,1.11,12.12,2l.83-7.98c-2.67-.67-5.28-1.22-7.82-1.66-2.54-.45-5.26-.78-8.17-1-2.91-.22-6.39-.33-10.45-.33-7.29,0-13.36.71-18.2,2.12-4.85,1.41-8.42,3.35-10.72,5.82-2.31,2.46-3.47,5.25-3.47,8.35s1.05,5.9,3.12,8.06c2.07,2.16,5.33,3.94,9.76,5.36,4.43,1.41,10.01,2.59,16.74,3.54,4.53.61,8.36,1.37,11.49,2.28,3.13.92,5.53,2.08,7.19,3.5,1.66,1.41,2.49,3.22,2.49,5.44,0,3.16-1.96,5.61-5.88,7.36-3.92,1.74-9.62,2.61-17.1,2.61-5.35,0-10.41-.33-15.15-.99-4.75-.67-8.7-1.45-11.84-2.33l-.83,7.31c2.59.61,5.23,1.16,7.96,1.66,2.72.5,5.75.88,9.06,1.16,3.33.28,7.11.41,11.35.41,8.48,0,15.31-.79,20.48-2.36,5.17-1.58,8.95-3.7,11.35-6.36,2.4-2.66,3.6-5.65,3.6-8.97,0-3.66-1.22-6.6-3.67-8.85h0Z"/>
      <polygon class="cls-2" points="368.75 72.22 319.44 72.22 325.09 62.67 362.67 62.67 368.75 72.22"/>
    </g>
    <g>
      <polygon class="cls-2" points="655.79 53.17 655.79 61.07 596.95 61.07 601.61 53.17 655.79 53.17"/>
      <polygon class="cls-2" points="655.87 79.32 655.87 87.23 596.05 87.23 596.05 87.15 596.36 87.15 600.99 79.32 655.87 79.32"/>
      <polygon class="cls-2" points="655.87 27.06 655.87 34.96 598.09 34.96 602.76 27.06 655.87 27.06"/>
    </g>
  </g>
</svg>